<?xml version="1.0" encoding="UTF-8"?>
<svg width="130px" height="101px" viewBox="0 0 130 101" version="1.1" xmlns="http://www.w3.org/2000/svg" xmlns:xlink="http://www.w3.org/1999/xlink">
    <!-- Generator: Sketch 52.5 (67469) - http://www.bohemiancoding.com/sketch -->
    <title>data-view 2</title>
    <desc>Created with Sketch.</desc>
    <g id="Page-1" stroke="none" stroke-width="1" fill="none" fill-rule="evenodd">
        <g id="data-view-2">
            <g id="data-view">
                <g id="Group">
                    <rect id="Rectangle-Copy-39" fill="#F3F1ED" x="0" y="0" width="130" height="100"></rect>
                    <g id="Group-3" fill="#F2E0C9">
                        <path d="M13.3747169,99.987872 L17.3439477,99.9997 C17.3915785,82.5265817 21.9581785,67.7642161 30.5019477,55.0287323 C31.4515862,53.6147538 32.4478631,52.2319581 33.4868092,50.8749688 L129.000394,32.6255065 L129.000394,23.0287323 L44.16404,39.2384097 C48.7127785,35.0341086 53.8221708,31.0480871 59.5448092,27.1642161 C65.6078092,23.0480871 69.3021708,20.8502376 81.1642169,14.0652914 C88.9101708,9.63518387 95.5623554,4.22658172 99.0056631,-0.0003 L93.4011092,-0.0003 C90.3586938,2.85991505 85.0242938,6.99432366 79.3105862,10.2620656 C67.3562554,17.0997 63.6152554,19.3255065 57.43814,23.5179796 C49.4937246,28.911528 42.6557323,34.5147538 36.8338631,40.6384097 L0.000393846154,47.6771194 L0.000393846154,57.2728183 L27.6431092,51.9910978 C27.5270092,52.1620656 27.40694,52.3287323 27.2918323,52.4997 C18.2618323,65.9577645 13.4243323,81.5986247 13.3747169,99.987872 Z" id="Fill-1"></path>
                    </g>
                    <path d="M64.724091,31.2152466 L64.6658172,31.2152466 C64.5225682,28.3865497 62.9894826,23.7924781 60.7675241,20.9011223 C59.5568751,19.3256023 59,17.7902044 59,16.8586876 C59,13.6229642 61.5497691,11 64.6948703,11 L64.6950383,11 C67.8401396,11 70.3899083,13.6229642 70.3899083,16.8586876 C70.3899083,17.7902044 69.8328656,19.3256023 68.6223845,20.9011223 C66.400426,23.7924781 64.8671725,28.3865497 64.724091,31.2152466 Z M64.6949541,18.9103139 C65.9046604,18.9103139 66.8853211,17.926545 66.8853211,16.7130045 C66.8853211,15.499464 65.9046604,14.5156951 64.6949541,14.5156951 C63.4852479,14.5156951 62.5045872,15.499464 62.5045872,16.7130045 C62.5045872,17.926545 63.4852479,18.9103139 64.6949541,18.9103139 Z" id="Combined-Shape-Copy" fill="#F15A24" fill-rule="nonzero"></path>
                    <path d="M19.3341828,50.2152466 L19.275909,50.2152466 C19.1326599,47.3865497 17.5995744,42.7924781 15.3776159,39.9011223 C14.1669668,38.3256023 13.6100917,36.7902044 13.6100917,35.8586876 C13.6100917,32.6229642 16.1598608,30 19.3049621,30 L19.3051301,30 C22.4502313,30 25,32.6229642 25,35.8586876 C25,36.7902044 24.4429573,38.3256023 23.2324762,39.9011223 C21.0105178,42.7924781 19.4772642,47.3865497 19.3341828,50.2152466 Z M19.3050459,37.9103139 C20.5147521,37.9103139 21.4954128,36.926545 21.4954128,35.7130045 C21.4954128,34.499464 20.5147521,33.5156951 19.3050459,33.5156951 C18.0953396,33.5156951 17.1146789,34.499464 17.1146789,35.7130045 C17.1146789,36.926545 18.0953396,37.9103139 19.3050459,37.9103139 Z" id="Combined-Shape-Copy-5" fill="#F15A24" fill-rule="nonzero"></path>
                    <path d="M105.113999,54.2152466 L105.055725,54.2152466 C104.912476,51.3865497 103.379391,46.7924781 101.157432,43.9011223 C99.946783,42.3256023 99.389908,40.7902044 99.389908,39.8586876 C99.389908,36.6229642 101.939677,34 105.084779,34 L105.084947,34 C108.230048,34 110.779817,36.6229642 110.779817,39.8586876 C110.779817,40.7902044 110.222774,42.3256023 109.012293,43.9011223 C106.790334,46.7924781 105.257081,51.3865497 105.113999,54.2152466 Z M105.084862,41.9103139 C106.294569,41.9103139 107.275229,40.926545 107.275229,39.7130045 C107.275229,38.499464 106.294569,37.5156951 105.084862,37.5156951 C103.875156,37.5156951 102.894495,38.499464 102.894495,39.7130045 C102.894495,40.926545 103.875156,41.9103139 105.084862,41.9103139 Z" id="Combined-Shape-Copy-4" fill="#F15A24" fill-rule="nonzero"></path>
                    <g id="Group-3" fill="#A4CCFF">
                        <path d="M39.5234,-3.55271368e-15 L0.0004,-3.55271368e-15 L0.0004,22.793 C17.1654,23.365 30.3394,15.768 39.5234,-3.55271368e-15" id="Fill-1"></path>
                    </g>
                    <polygon id="Path" fill="#FFFFFF" points="0.52293578 63.5605381 129.522936 63.5605381 129.522936 100.560538 0.52293578 100.560538"></polygon>
                    <polygon id="Line-3" fill="#D9D9D9" fill-rule="nonzero" points="32.0022936 63.5615244 33.0022936 63.5615244 33.0022936 100.5 32.0022936 100.5"></polygon>
                    <polygon id="Line-3" fill="#D9D9D9" fill-rule="nonzero" points="0.89908257 64.0605381 0.89908257 63.0605381 129.899083 63.0605381 129.899083 64.0605381"></polygon>
                    <polygon id="Line-3" fill="#D9D9D9" fill-rule="nonzero" points="0.89908257 72.8497758 0.89908257 71.8497758 129.899083 71.8497758 129.899083 72.8497758"></polygon>
                    <polygon id="Line-3" fill="#D9D9D9" fill-rule="nonzero" points="0.89908257 81.6390135 0.89908257 80.6390135 129.899083 80.6390135 129.899083 81.6390135"></polygon>
                    <polygon id="Line-3-Copy-4" fill="#D9D9D9" fill-rule="nonzero" points="0.89908257 91.3071749 0.89908257 90.3071749 129.899083 90.3071749 129.899083 91.3071749"></polygon>
                    <polygon id="Line-3-Copy" fill="#D9D9D9" fill-rule="nonzero" points="65.2958716 63.5615244 66.2958716 63.5615244 66.2958716 100.5 65.2958716 100.5"></polygon>
                    <polygon id="Line-3-Copy-2" fill="#D9D9D9" fill-rule="nonzero" points="99.4655963 63.5615244 100.465596 63.5615244 100.465596 100.5 99.4655963 100.5"></polygon>
                    <path d="M0,0 L130,0 L130,101 L0,101 L0,0 Z M1,1 L1,100 L129,100 L129,1 L1,1 Z" id="Rectangle-4" fill="#D9D9D9" fill-rule="nonzero"></path>
                    <polygon id="Rectangle-5-Copy-4" fill="#D8D8D8" points="3.90366972 66.955157 21.4266055 66.955157 21.4266055 68.7130045 3.90366972 68.7130045"></polygon>
                    <polygon id="Rectangle-5-Copy-10" fill="#D8D8D8" points="69.6146789 66.955157 87.1376147 66.955157 87.1376147 68.7130045 69.6146789 68.7130045"></polygon>
                    <polygon id="Rectangle-5-Copy-5" fill="#D8D8D8" points="3.90366972 75.8654709 27.559633 75.8654709 27.559633 77.6233184 3.90366972 77.6233184"></polygon>
                    <polygon id="Rectangle-5-Copy-11" fill="#D8D8D8" points="69.6146789 75.8654709 93.2706422 75.8654709 93.2706422 77.6233184 69.6146789 77.6233184"></polygon>
                    <polygon id="Rectangle-5-Copy-4" fill="#D8D8D8" points="3.90366972 85.5336323 21.4266055 85.5336323 21.4266055 87.2914798 3.90366972 87.2914798"></polygon>
                    <polygon id="Rectangle-5-Copy-12" fill="#D8D8D8" points="69.6146789 85.5336323 87.1376147 85.5336323 87.1376147 87.2914798 69.6146789 87.2914798"></polygon>
                    <polygon id="Rectangle-5-Copy-5" fill="#D8D8D8" points="3.90366972 94.32287 27.559633 94.32287 27.559633 96.0807175 3.90366972 96.0807175"></polygon>
                    <polygon id="Rectangle-5-Copy-13" fill="#D8D8D8" points="69.6146789 94.32287 93.2706422 94.32287 93.2706422 96.0807175 69.6146789 96.0807175"></polygon>
                    <rect id="Rectangle-5-Copy-6" fill="#D8D8D8" transform="translate(45.082569, 95.201794) scale(-1, 1) rotate(-180.000000) translate(-45.082569, -95.201794) " x="36.3211009" y="94.3228705" width="17.5229358" height="1.75784753"></rect>
                    <polygon id="Rectangle-5-Copy-14" fill="#D8D8D8" transform="translate(111.669725, 95.201794) scale(-1, 1) rotate(-180.000000) translate(-111.669725, -95.201794) " points="102.908257 94.3228705 120.431193 94.3228705 120.431193 96.080718 102.908257 96.080718"></polygon>
                    <polygon id="Rectangle-5-Copy-7" fill="#D8D8D8" transform="translate(48.149083, 86.291480) scale(-1, 1) rotate(-180.000000) translate(-48.149083, -86.291480) " points="36.3211009 85.4125564 59.9770642 85.4125564 59.9770642 87.1704039 36.3211009 87.1704039"></polygon>
                    <polygon id="Rectangle-5-Copy-15" fill="#D8D8D8" transform="translate(114.736239, 86.291480) scale(-1, 1) rotate(-180.000000) translate(-114.736239, -86.291480) " points="102.908257 85.4125564 126.56422 85.4125564 126.56422 87.1704039 102.908257 87.1704039"></polygon>
                    <polygon id="Rectangle-5-Copy-8" fill="#D8D8D8" transform="translate(45.082569, 76.623318) scale(-1, 1) rotate(-180.000000) translate(-45.082569, -76.623318) " points="36.3211009 75.7443938 53.8440367 75.7443938 53.8440367 77.5022414 36.3211009 77.5022414"></polygon>
                    <polygon id="Rectangle-5-Copy-16" fill="#D8D8D8" transform="translate(111.669725, 76.623318) scale(-1, 1) rotate(-180.000000) translate(-111.669725, -76.623318) " points="102.908257 75.7443938 120.431193 75.7443938 120.431193 77.5022414 102.908257 77.5022414"></polygon>
                    <polygon id="Rectangle-5-Copy-9" fill="#D8D8D8" transform="translate(48.149083, 67.834081) scale(-1, 1) rotate(-180.000000) translate(-48.149083, -67.834081) " points="36.3211009 66.9551575 59.9770642 66.9551575 59.9770642 68.713005 36.3211009 68.713005"></polygon>
                    <polygon id="Rectangle-5-Copy-17" fill="#D8D8D8" transform="translate(114.736239, 67.834081) scale(-1, 1) rotate(-180.000000) translate(-114.736239, -67.834081) " points="102.908257 66.9551575 126.56422 66.9551575 126.56422 68.713005 102.908257 68.713005"></polygon>
                </g>
            </g>
        </g>
    </g>
</svg>