<?xml version="1.0" encoding="UTF-8"?>
<svg width="130px" height="100px" viewBox="0 0 130 100" version="1.1" xmlns="http://www.w3.org/2000/svg" xmlns:xlink="http://www.w3.org/1999/xlink">
    <!-- Generator: Sketch 52.5 (67469) - http://www.bohemiancoding.com/sketch -->
    <title>Group</title>
    <desc>Created with Sketch.</desc>
    <g id="Page-1" stroke="none" stroke-width="1" fill="none" fill-rule="evenodd">
        <g id="Group">
            <rect id="Rectangle-Copy-40" fill="#F3F1ED" x="39" y="0" width="91" height="100"></rect>
            <g id="Group-3-Copy-2" transform="translate(39.000000, 0.000000)" fill="#A4CCFF">
                <path d="M53,0 L0,0 L0,40.9460373 C23.018116,41.9735955 40.6843357,28.326114 53,0" id="Fill-1"></path>
            </g>
            <g id="Group-3-Copy-3" transform="translate(109.399083, 87.500000) rotate(-180.000000) translate(-109.399083, -87.500000) translate(89.399083, 76.000000)" fill="#A4CCFF">
                <path d="M39.5234,-3.55271368e-15 L0.0004,-3.55271368e-15 L0.0004,22.793 C17.1654,23.365 30.3394,15.768 39.5234,-3.55271368e-15" id="Fill-1"></path>
            </g>
            <g id="Group-5" transform="translate(37.399083, 0.000000)" fill="#F2E0C9">
                <polygon id="Fill-1" points="91.5023 -0.0003 0.0003 99.4580304 11.7281101 99.4580304 91.5023 12.7482826"></polygon>
                <g id="Group-4" transform="translate(32.000000, 50.943770)">
                    <g id="Fill-2-Clipped">
                        <path d="M6.9195,48.5145633 C17.4345,23.6242331 38.1009174,13.6567735 59.5025,6.89710962 L59.5025,0.306740639 C35.5755268,8.29247904 11.4345,20.5638059 0.5025,48.5145633 L6.9195,48.5145633 Z" id="Fill-2"></path>
                    </g>
                </g>
            </g>
            <path d="M60.3866087,63.0493827 L60.3283255,63.0493827 C60.1850532,60.2283472 58.6517195,55.6467187 56.4294012,52.7631941 C55.2185561,51.1919414 54.6615908,49.6607021 54.6615908,48.7317083 C54.6615908,45.5047489 57.2117728,42.8888889 60.3573833,42.8888889 L60.3575514,42.8888889 C63.5031619,42.8888889 66.0533434,45.5047489 66.0533434,48.7317083 C66.0533434,49.6607021 65.4962105,51.1919414 64.2855335,52.7631941 C62.0632152,55.6467187 60.5297134,60.2283472 60.3866087,63.0493827 Z M60.3574671,50.7777778 C61.5673693,50.7777778 62.5481888,49.7966734 62.5481888,48.5864198 C62.5481888,47.3761661 61.5673693,46.3950617 60.3574671,46.3950617 C59.147565,46.3950617 58.1667455,47.3761661 58.1667455,48.5864198 C58.1667455,49.7966734 59.147565,50.7777778 60.3574671,50.7777778 Z" id="Combined-Shape" fill="#F15A24" fill-rule="nonzero"></path>
            <path d="M101.438155,36.6296296 L101.379872,36.6296296 C101.2366,33.8085942 99.7032659,29.2269656 97.4809476,26.343441 C96.2701025,24.7721883 95.7131372,23.240949 95.7131372,22.3119552 C95.7131372,19.0849958 98.2633192,16.4691358 101.40893,16.4691358 L101.409098,16.4691358 C104.554708,16.4691358 107.10489,19.0849958 107.10489,22.3119552 C107.10489,23.240949 106.547757,24.7721883 105.33708,26.343441 C103.114762,29.2269656 101.58126,33.8085942 101.438155,36.6296296 Z M101.409014,24.3580247 C102.618916,24.3580247 103.599735,23.3769203 103.599735,22.1666667 C103.599735,20.956413 102.618916,19.9753086 101.409014,19.9753086 C100.199111,19.9753086 99.2182919,20.956413 99.2182919,22.1666667 C99.2182919,23.3769203 100.199111,24.3580247 101.409014,24.3580247 Z" id="Combined-Shape-Copy-2" fill="#F15A24" fill-rule="nonzero"></path>
            <path d="M106.725018,76.1604938 L106.666735,76.1604938 C106.523462,73.3394584 104.990129,68.7578298 102.76781,65.8743052 C101.556965,64.3030525 101,62.7718132 101,61.8428194 C101,58.61586 103.550182,56 106.695792,56 L106.695961,56 C109.841571,56 112.391753,58.61586 112.391753,61.8428194 C112.391753,62.7718132 111.83462,64.3030525 110.623943,65.8743052 C108.401624,68.7578298 106.868123,73.3394584 106.725018,76.1604938 Z M106.695876,63.8888889 C107.905778,63.8888889 108.886598,62.9077845 108.886598,61.6975309 C108.886598,60.4872772 107.905778,59.5061728 106.695876,59.5061728 C105.485974,59.5061728 104.505155,60.4872772 104.505155,61.6975309 C104.505155,62.9077845 105.485974,63.8888889 106.695876,63.8888889 Z" id="Combined-Shape-Copy-3" fill="#F15A24" fill-rule="nonzero"></path>
            <rect id="Rectangle-Copy-40" fill="#FFFFFF" transform="translate(19.500000, 50.000000) scale(-1, 1) translate(-19.500000, -50.000000) " x="0" y="0" width="39" height="100"></rect>
            <path d="M1,1 L1,24.4876429 L38.7882419,24.4876429 L38.7882419,1 L1,1 Z M39.7882419,0 L39.7882419,25.4876429 L0,25.4876429 L0,0 L39.7882419,0 Z" id="Mask" fill="#D9D9D9" fill-rule="nonzero"></path>
            <path d="M0,24.742268 L39.7882419,24.742268 L39.7882419,50.2299109 L0,50.2299109 L0,24.742268 Z M1,25.742268 L1,49.2299109 L38.7882419,49.2299109 L38.7882419,25.742268 L1,25.742268 Z" id="Path" fill="#D9D9D9" fill-rule="nonzero"></path>
            <path d="M1,50.4845361 L1,73.972179 L38.7882419,73.972179 L38.7882419,50.4845361 L1,50.4845361 Z M39.7882419,49.4845361 L39.7882419,74.972179 L0,74.972179 L0,49.4845361 L39.7882419,49.4845361 Z" id="Path" fill="#D9D9D9" fill-rule="nonzero"></path>
            <path d="M0,74.2268041 L39.7882419,74.2268041 L39.7882419,99.714447 L0,99.714447 L0,74.2268041 Z M1,75.2268041 L1,98.714447 L38.7882419,98.714447 L38.7882419,75.2268041 L1,75.2268041 Z" id="Path" fill="#D9D9D9" fill-rule="nonzero"></path>
            <rect id="Rectangle-5" fill="#D8D8D8" x="5.40540541" y="6.18556701" width="28.4201728" height="3.61461117"></rect>
            <polygon id="Rectangle-5-Copy" fill="#D8D8D8" points="5.40540541 30.9278351 33.8255782 30.9278351 33.8255782 34.5424462 5.40540541 34.5424462"></polygon>
            <polygon id="Rectangle-5" fill="#D8D8D8" points="5.40540541 13.4020619 24.3521872 13.4020619 24.3521872 15.2093674 5.40540541 15.2093674"></polygon>
            <polygon id="Rectangle-5-Copy-2" fill="#D8D8D8" points="5.40540541 38.1443299 24.3521872 38.1443299 24.3521872 39.9516355 5.40540541 39.9516355"></polygon>
            <polygon id="Rectangle-5" fill="#D8D8D8" points="5.40540541 17.5257732 30.9835609 17.5257732 30.9835609 19.3330788 5.40540541 19.3330788"></polygon>
            <rect id="Rectangle-5-Copy-3" fill="#D8D8D8" x="5.40540541" y="42.2680412" width="25.5781555" height="1.80730559"></rect>
            <polygon id="Rectangle-5-Copy" fill="#D8D8D8" points="5.40540541 55.6701031 33.8255782 55.6701031 33.8255782 59.2847143 5.40540541 59.2847143"></polygon>
            <polygon id="Rectangle-5-Copy-2" fill="#D8D8D8" points="5.40540541 62.8865979 24.3521872 62.8865979 24.3521872 64.6939035 5.40540541 64.6939035"></polygon>
            <polygon id="Rectangle-5-Copy-3" fill="#D8D8D8" points="5.40540541 65.9793814 30.9835609 65.9793814 30.9835609 67.786687 5.40540541 67.786687"></polygon>
            <polygon id="Rectangle-5-Copy" fill="#D8D8D8" points="5.40540541 80.4123711 33.8255782 80.4123711 33.8255782 84.0269823 5.40540541 84.0269823"></polygon>
            <polygon id="Rectangle-5-Copy-2" fill="#D8D8D8" points="5.40540541 87.628866 24.3521872 87.628866 24.3521872 89.4361716 5.40540541 89.4361716"></polygon>
            <polygon id="Rectangle-5-Copy-3" fill="#D8D8D8" points="5.40540541 91.7525773 30.9835609 91.7525773 30.9835609 93.5598829 5.40540541 93.5598829"></polygon>
            <path d="M0,0 L130,0 L130,100 L0,100 L0,0 Z M1,1 L1,99 L129,99 L129,1 L1,1 Z" id="Rectangle-4-Copy-2" fill="#D9D9D9" fill-rule="nonzero"></path>
        </g>
    </g>
</svg>